<svg xmlns="http://www.w3.org/2000/svg" xmlns:xlink="http://www.w3.org/1999/xlink" width="64" height="56" viewBox="0 0 64 56">
  <defs>
    <filter id="Rectangle_55" x="0" y="0" width="39" height="25" filterUnits="userSpaceOnUse">
      <feOffset dy="3" input="SourceAlpha"/>
      <feGaussianBlur stdDeviation="3" result="blur"/>
      <feFlood flood-opacity="0.302"/>
      <feComposite operator="in" in2="blur"/>
      <feComposite in="SourceGraphic"/>
    </filter>
    <filter id="Rectangle_56" x="0" y="16" width="64" height="25" filterUnits="userSpaceOnUse">
      <feOffset dy="3" input="SourceAlpha"/>
      <feGaussianBlur stdDeviation="3" result="blur-2"/>
      <feFlood flood-opacity="0.302"/>
      <feComposite operator="in" in2="blur-2"/>
      <feComposite in="SourceGraphic"/>
    </filter>
    <filter id="Rectangle_57" x="0" y="31" width="64" height="25" filterUnits="userSpaceOnUse">
      <feOffset dy="3" input="SourceAlpha"/>
      <feGaussianBlur stdDeviation="3" result="blur-3"/>
      <feFlood flood-opacity="0.302"/>
      <feComposite operator="in" in2="blur-3"/>
      <feComposite in="SourceGraphic"/>
    </filter>
  </defs>
  <g transform="matrix(1, 0, 0, 1, 0, 0)" filter="url(#Rectangle_55)">
    <g id="Rectangle_55-2" data-name="Rectangle 55" transform="translate(9 6)" fill="#34342c" stroke="#34342c" stroke-width="1">
      <rect width="21" height="7" rx="3.5" stroke="none"/>
      <rect x="0.5" y="0.5" width="20" height="6" rx="3" fill="none"/>
    </g>
  </g>
  <g transform="matrix(1, 0, 0, 1, 0, 0)" filter="url(#Rectangle_56)">
    <g id="Rectangle_56-2" data-name="Rectangle 56" transform="translate(9 22)" fill="#34342c" stroke="#34342c" stroke-width="1">
      <rect width="46" height="7" rx="3.5" stroke="none"/>
      <rect x="0.5" y="0.5" width="45" height="6" rx="3" fill="none"/>
    </g>
  </g>
  <g transform="matrix(1, 0, 0, 1, 0, 0)" filter="url(#Rectangle_57)">
    <g id="Rectangle_57-2" data-name="Rectangle 57" transform="translate(9 37)" fill="#34342c" stroke="#34342c" stroke-width="1">
      <rect width="46" height="7" rx="3.5" stroke="none"/>
      <rect x="0.5" y="0.5" width="45" height="6" rx="3" fill="none"/>
    </g>
  </g>
</svg>
