<svg id="processIcons" xmlns="http://www.w3.org/2000/svg" xmlnsXlink="http://www.w3.org/1999/xlink" width="738" height="182.767" viewBox="0 0 738 182.767">
  <defs>
    <filter id="left-hand" x="52.559" y="71.426" width="69.529" height="106.645" filterUnits="userSpaceOnUse">
      <feOffset dy="3" input="SourceAlpha"/>
      <feGaussianBlur stdDeviation="3" result="blur"/>
      <feFlood flood-opacity="0"/>
      <feComposite operator="in" in2="blur"/>
      <feComposite in="SourceGraphic"/>
    </filter>
    <filter id="right-hand" x="137.977" y="71.426" width="69.529" height="106.645" filterUnits="userSpaceOnUse">
      <feOffset dy="3" input="SourceAlpha"/>
      <feGaussianBlur stdDeviation="3" result="blur-2"/>
      <feFlood flood-opacity="0"/>
      <feComposite operator="in" in2="blur-2"/>
      <feComposite in="SourceGraphic"/>
    </filter>
  </defs>
  <g id="keyboardicon" transform="translate(31.574 17.853)">
    <g id="keyboardIcon-2" data-name="keyboardIcon" transform="translate(1.7 -16)">
      <g id="keyboard-frame" transform="translate(11.726 43.146)" fill="none" stroke="#683c45" stroke-width="3">
        <rect width="169" height="82" rx="6" stroke="none"/>
        <rect x="1.5" y="1.5" width="166" height="79" rx="4.5" fill="none"/>
      </g>
      <g id="key4row" transform="translate(21.809 103.141)">
        <g id="key" transform="translate(-0.084 0.006)" fill="none" stroke="#0b0b09" stroke-width="1">
          <rect width="14" height="14" rx="3" stroke="none"/>
          <rect x="0.5" y="0.5" width="13" height="13" rx="2.5" fill="none"/>
        </g>
        <g id="key-2" data-name="key" transform="translate(34.916 0.006)" fill="none" stroke="#0b0b09" stroke-width="1">
          <rect width="14" height="14" rx="3" stroke="none"/>
          <rect x="0.5" y="0.5" width="13" height="13" rx="2.5" fill="none"/>
        </g>
        <g id="key-3" data-name="key" transform="translate(51.916 0.006)" fill="none" stroke="#0b0b09" stroke-width="1">
          <rect width="47" height="14" rx="3" stroke="none"/>
          <rect x="0.5" y="0.5" width="46" height="13" rx="2.5" fill="none"/>
        </g>
        <g id="key-4" data-name="key" transform="translate(103.916 0.006)" fill="none" stroke="#0b0b09" stroke-width="1">
          <rect width="14" height="14" rx="3" stroke="none"/>
          <rect x="0.5" y="0.5" width="13" height="13" rx="2.5" fill="none"/>
        </g>
        <g id="key-5" data-name="key" transform="translate(136.916 0.006)" fill="none" stroke="#0b0b09" stroke-width="1">
          <rect width="14" height="14" rx="3" stroke="none"/>
          <rect x="0.5" y="0.5" width="13" height="13" rx="2.5" fill="none"/>
        </g>
      </g>
      <g id="key3row" transform="translate(21.809 85.835)">
        <g id="key-6" data-name="key" transform="translate(-0.084 0.313)" fill="none" stroke="#0b0b09" stroke-width="1">
          <rect width="19" height="14" rx="3" stroke="none"/>
          <rect x="0.5" y="0.5" width="18" height="13" rx="2.5" fill="none"/>
        </g>
        <g id="key-7" data-name="key" transform="translate(34.916 0.313)" fill="none" stroke="#0b0b09" stroke-width="1">
          <rect width="14" height="14" rx="3" stroke="none"/>
          <rect x="0.5" y="0.5" width="13" height="13" rx="2.5" fill="none"/>
        </g>
        <g id="key-8" data-name="key" transform="translate(51.916 0.313)" fill="none" stroke="#0b0b09" stroke-width="1">
          <rect width="14" height="14" rx="3" stroke="none"/>
          <rect x="0.5" y="0.5" width="13" height="13" rx="2.5" fill="none"/>
        </g>
        <g id="key-9" data-name="key" transform="translate(68.916 0.313)" fill="none" stroke="#0b0b09" stroke-width="1">
          <rect width="14" height="14" rx="3" stroke="none"/>
          <rect x="0.5" y="0.5" width="13" height="13" rx="2.5" fill="none"/>
        </g>
        <g id="key-10" data-name="key" transform="translate(86.916 0.313)" fill="none" stroke="#0b0b09" stroke-width="1">
          <rect width="13" height="14" rx="3" stroke="none"/>
          <rect x="0.5" y="0.5" width="12" height="13" rx="2.5" fill="none"/>
        </g>
        <g id="key-11" data-name="key" transform="translate(103.916 0.313)" fill="none" stroke="#0b0b09" stroke-width="1">
          <rect width="14" height="14" rx="3" stroke="none"/>
          <rect x="0.5" y="0.5" width="13" height="13" rx="2.5" fill="none"/>
        </g>
      </g>
      <g id="key2row" transform="translate(21.809 68.529)">
        <g id="key-12" data-name="key" transform="translate(-0.084 -0.381)" fill="none" stroke="#0b0b09" stroke-width="1">
          <rect width="14" height="14" rx="3" stroke="none"/>
          <rect x="0.5" y="0.5" width="13" height="13" rx="2.5" fill="none"/>
        </g>
        <g id="key-13" data-name="key" transform="translate(16.916 -0.381)" fill="none" stroke="#0b0b09" stroke-width="1">
          <rect width="14" height="14" rx="3" stroke="none"/>
          <rect x="0.5" y="0.5" width="13" height="13" rx="2.5" fill="none"/>
        </g>
        <g id="key-14" data-name="key" transform="translate(34.916 -0.381)" fill="none" stroke="#0b0b09" stroke-width="1">
          <rect width="14" height="14" rx="3" stroke="none"/>
          <rect x="0.5" y="0.5" width="13" height="13" rx="2.5" fill="none"/>
        </g>
        <g id="key-15" data-name="key" transform="translate(51.916 -0.381)" fill="none" stroke="#0b0b09" stroke-width="1">
          <rect width="14" height="14" rx="3" stroke="none"/>
          <rect x="0.5" y="0.5" width="13" height="13" rx="2.5" fill="none"/>
        </g>
        <g id="key-16" data-name="key" transform="translate(68.916 -0.381)" fill="none" stroke="#0b0b09" stroke-width="1">
          <rect width="14" height="14" rx="3" stroke="none"/>
          <rect x="0.5" y="0.5" width="13" height="13" rx="2.5" fill="none"/>
        </g>
        <g id="key-17" data-name="key" transform="translate(86.916 -0.381)" fill="none" stroke="#0b0b09" stroke-width="1">
          <rect width="13" height="14" rx="3" stroke="none"/>
          <rect x="0.5" y="0.5" width="12" height="13" rx="2.5" fill="none"/>
        </g>
        <g id="key-18" data-name="key" transform="translate(103.916 -0.381)" fill="none" stroke="#0b0b09" stroke-width="1">
          <rect width="14" height="14" rx="3" stroke="none"/>
          <rect x="0.5" y="0.5" width="13" height="13" rx="2.5" fill="none"/>
        </g>
        <g id="key-19" data-name="key" transform="translate(120.916 -0.381)" fill="none" stroke="#0b0b09" stroke-width="1">
          <rect width="14" height="14" rx="3" stroke="none"/>
          <rect x="0.5" y="0.5" width="13" height="13" rx="2.5" fill="none"/>
        </g>
        <g id="key-20" data-name="key" transform="translate(136.916 -0.381)" fill="none" stroke="#0b0b09" stroke-width="1">
          <rect width="14" height="32" rx="3" stroke="none"/>
          <rect x="0.5" y="0.5" width="13" height="31" rx="2.5" fill="none"/>
        </g>
      </g>
      <g id="key1row" transform="translate(21.809 51.223)">
        <g id="key-21" data-name="key" transform="translate(-0.084 -0.076)" fill="none" stroke="#0b0b09" stroke-width="1">
          <rect width="14" height="14" rx="3" stroke="none"/>
          <rect x="0.5" y="0.5" width="13" height="13" rx="2.5" fill="none"/>
        </g>
        <g id="key-22" data-name="key" transform="translate(16.916 -0.076)" fill="none" stroke="#0b0b09" stroke-width="1">
          <rect width="14" height="14" rx="3" stroke="none"/>
          <rect x="0.5" y="0.5" width="13" height="13" rx="2.5" fill="none"/>
        </g>
        <g id="key-23" data-name="key" transform="translate(34.916 -0.076)" fill="none" stroke="#0b0b09" stroke-width="1">
          <rect width="14" height="14" rx="3" stroke="none"/>
          <rect x="0.5" y="0.5" width="13" height="13" rx="2.5" fill="none"/>
        </g>
        <g id="key-24" data-name="key" transform="translate(51.916 -0.076)" fill="none" stroke="#0b0b09" stroke-width="1">
          <rect width="14" height="14" rx="3" stroke="none"/>
          <rect x="0.5" y="0.5" width="13" height="13" rx="2.5" fill="none"/>
        </g>
        <g id="key-25" data-name="key" transform="translate(68.916 -0.076)" fill="none" stroke="#0b0b09" stroke-width="1">
          <rect width="14" height="14" rx="3" stroke="none"/>
          <rect x="0.5" y="0.5" width="13" height="13" rx="2.5" fill="none"/>
        </g>
        <g id="key-26" data-name="key" transform="translate(86.916 -0.076)" fill="none" stroke="#0b0b09" stroke-width="1">
          <rect width="13" height="14" rx="3" stroke="none"/>
          <rect x="0.5" y="0.5" width="12" height="13" rx="2.5" fill="none"/>
        </g>
        <g id="key-27" data-name="key" transform="translate(103.916 -0.076)" fill="none" stroke="#0b0b09" stroke-width="1">
          <rect width="14" height="14" rx="3" stroke="none"/>
          <rect x="0.5" y="0.5" width="13" height="13" rx="2.5" fill="none"/>
        </g>
        <g id="key-28" data-name="key" transform="translate(120.916 -0.076)" fill="none" stroke="#0b0b09" stroke-width="1">
          <rect width="14" height="14" rx="3" stroke="none"/>
          <rect x="0.5" y="0.5" width="13" height="13" rx="2.5" fill="none"/>
        </g>
        <g id="key-29" data-name="key" transform="translate(136.916 -0.076)" fill="none" stroke="#0b0b09" stroke-width="1">
          <rect width="14" height="31" rx="3" stroke="none"/>
          <rect x="0.5" y="0.5" width="13" height="30" rx="2.5" fill="none"/>
        </g>
      </g>
      <g transform="matrix(1, 0, 0, 1, -33.27, -1.85)" filter="url(#left-hand)">
        <path id="left-hand-2" data-name="left-hand" d="M30.695,158.765H58.768V141.3L76.28,107.313s.581-4.071-.966-5.165-5.239.37-5.239.37S59.342,121.8,59.358,115.68s0-32.94,0-32.94-.839-3.218-2.782-3.218-4.123,3.218-4.123,3.218v26.513s-.478,1.01-.946,1.01-.925-1.01-.925-1.01v-34.5s-1.743-2.632-3.369-2.632-3.135,2.632-3.135,2.632v34.5s-.45,1.01-.926,1.01-.978-1.01-.978-1.01v-30.8s-1.837-2.634-3.589-2.634-3.418,2.634-3.418,2.634v32.9s-.447.658-.867.658-.815-.658-.815-.658V89.322s-1.433-2.711-3.366-2.711S26.9,89.322,26.9,89.322v34.867l3.79,17.108Z" transform="translate(35.65 6.31)" fill="#fff" stroke="#34342c" stroke-width="2"/>
      </g>
      <g transform="matrix(1, 0, 0, 1, -33.27, -1.85)" filter="url(#right-hand)">
        <path id="right-hand-2" data-name="right-hand" d="M72.6,158.765H44.523V141.3L27.012,107.313s-.581-4.071.966-5.165,5.239.37,5.239.37S43.95,121.8,43.933,115.68s0-32.94,0-32.94.839-3.218,2.782-3.218,4.123,3.218,4.123,3.218v26.513s.478,1.01.946,1.01.925-1.01.925-1.01v-34.5s1.743-2.632,3.369-2.632,3.135,2.632,3.135,2.632v34.5s.45,1.01.926,1.01.978-1.01.978-1.01v-30.8s1.837-2.634,3.589-2.634,3.418,2.634,3.418,2.634v32.9s.447.658.867.658.815-.658.815-.658V89.322s1.433-2.711,3.366-2.711,3.214,2.711,3.214,2.711v34.867L72.6,141.3Z" transform="translate(121.12 6.31)" fill="#fff" stroke="#34342c" stroke-width="2"/>
      </g>
    </g>
    <g id="number-icon" transform="translate(-31.574 -18.673)">
      <g id="Rectangle_62" data-name="Rectangle 62" transform="translate(0 0.821)" fill="#683c45" stroke="#683c45" stroke-width="1">
        <rect width="45" height="45" rx="14" stroke="none"/>
        <rect x="0.5" y="0.5" width="44" height="44" rx="13.5" fill="none"/>
      </g>
      <text id="_1" data-name="1" transform="translate(17 31.821)" fill="#fff" font-size="25" font-family="SpaceGrotesk-Bold, Space Grotesk" font-weight="700"><tspan x="0" y="0">1</tspan></text>
    </g>
  </g>
  <g id="qrcodeicon" transform="translate(372.6 18.854)">
    <g id="qrhandicon" transform="translate(-75.1 -19.999)">
      <g id="qrcode-icon" transform="translate(22.5 46.202)">
        <g id="Rectangle_65" data-name="Rectangle 65" transform="translate(2.734 1.28)" fill="none" stroke="#34342c" stroke-width="3">
          <rect width="37.366" height="37.366" stroke="none"/>
          <rect x="1.5" y="1.5" width="34.366" height="34.366" fill="none"/>
        </g>
        <g id="Rectangle_68" data-name="Rectangle 68" transform="translate(58.784 1.28)" fill="none" stroke="#34342c" stroke-width="3">
          <rect width="37.366" height="37.366" stroke="none"/>
          <rect x="1.5" y="1.5" width="34.366" height="34.366" fill="none"/>
        </g>
        <g id="Rectangle_70" data-name="Rectangle 70" transform="translate(58.784 57.329)" fill="none" stroke="#34342c" stroke-width="3">
          <rect width="37.366" height="37.366" stroke="none"/>
          <rect x="1.5" y="1.5" width="34.366" height="34.366" fill="none"/>
        </g>
        <g id="Rectangle_72" data-name="Rectangle 72" transform="translate(1.4 57.329)" fill="none" stroke="#34342c" stroke-width="3">
          <rect width="37.366" height="37.366" stroke="none"/>
          <rect x="1.5" y="1.5" width="34.366" height="34.366" fill="none"/>
        </g>
        <g id="Rectangle_66" data-name="Rectangle 66" transform="translate(14.745 13.29)" fill="none" stroke="#34342c" stroke-width="3">
          <rect width="16.014" height="16.014" stroke="none"/>
          <rect x="1.5" y="1.5" width="13.014" height="13.014" fill="none"/>
        </g>
        <g id="Rectangle_67" data-name="Rectangle 67" transform="translate(70.794 13.29)" fill="none" stroke="#34342c" stroke-width="3">
          <rect width="16.014" height="16.014" stroke="none"/>
          <rect x="1.5" y="1.5" width="13.014" height="13.014" fill="none"/>
        </g>
        <g id="Rectangle_69" data-name="Rectangle 69" transform="translate(70.794 69.34)" fill="none" stroke="#34342c" stroke-width="3">
          <rect width="16.014" height="16.014" stroke="none"/>
          <rect x="1.5" y="1.5" width="13.014" height="13.014" fill="none"/>
        </g>
        <g id="Rectangle_71" data-name="Rectangle 71" transform="translate(13.41 69.34)" fill="none" stroke="#34342c" stroke-width="3">
          <rect width="16.014" height="16.014" stroke="none"/>
          <rect x="1.5" y="1.5" width="13.014" height="13.014" fill="none"/>
        </g>
        <g id="maze" transform="translate(0 38.971)">
          <path id="Path_49" data-name="Path 49" d="M23.427,79.754H54.149v8.777" transform="translate(-23.427 -69.44)" fill="none" stroke="#34342c" stroke-width="3"/>
          <path id="Path_50" data-name="Path 50" d="M31.427,82.576V73.725" transform="translate(-19.682 -73.725)" fill="none" stroke="#34342c" stroke-width="3"/>
          <path id="Path_51" data-name="Path 51" d="M39.2,82.512V73.861" transform="translate(-16.045 -73.661)" fill="none" stroke="#34342c" stroke-width="3"/>
        </g>
        <g id="maze-2" data-name="maze" transform="translate(59.832 0) rotate(90)">
          <path id="Path_49-2" data-name="Path 49" d="M0,0H30.722V8.777" transform="translate(0 10.113)" fill="none" stroke="#34342c" stroke-width="3"/>
          <path id="Path_51-2" data-name="Path 51" d="M0,8.651V0" transform="translate(23.15)" fill="none" stroke="#34342c" stroke-width="3"/>
          <path id="Path_52" data-name="Path 52" d="M0,0V8.777" transform="translate(10.632 10.113)" fill="none" stroke="#34342c" stroke-width="3"/>
        </g>
        <g id="maze-3" data-name="maze" transform="translate(68.437 39.172)">
          <path id="Path_49-3" data-name="Path 49" d="M56.5,79.754H28.152" transform="translate(-28.152 -69.641)" fill="none" stroke="#34342c" stroke-width="3"/>
          <path id="Path_50-2" data-name="Path 50" d="M31.427,82.576V73.725" transform="translate(-13.631 -73.725)" fill="none" stroke="#34342c" stroke-width="3"/>
          <path id="Path_51-3" data-name="Path 51" d="M39.2,85.867V73.861" transform="translate(-37.436 -73.861)" fill="none" stroke="#34342c" stroke-width="3"/>
          <path id="Path_52-2" data-name="Path 52" d="M38.668,79.754v8.777" transform="translate(-29.87 -69.641)" fill="none" stroke="#34342c" stroke-width="3"/>
        </g>
        <g id="maze-4" data-name="maze" transform="translate(39.525 97.644) rotate(-90)">
          <path id="Path_49-4" data-name="Path 49" d="M0,0H30.722V8.777" transform="translate(0 10.314)" fill="none" stroke="#34342c" stroke-width="3"/>
          <path id="Path_50-3" data-name="Path 50" d="M0,8.852V0" transform="translate(13.213)" fill="none" stroke="#34342c" stroke-width="3"/>
          <path id="Path_51-4" data-name="Path 51" d="M0,8.651V0" transform="translate(40.688 10.314) rotate(90)" fill="none" stroke="#34342c" stroke-width="3"/>
        </g>
      </g>
      <g id="mobileinhand" transform="translate(123.989 46.145)">
        <g id="Group_38" data-name="Group 38" transform="translate(9.351 92.082)">
          <path id="Path_54" data-name="Path 54" d="M98,109.145v5.861l25.913,23.819v15.467" transform="translate(-97.998 -108.736)" fill="none" stroke="#fff" stroke-width="3"/>
          <g id="Rectangle_75" data-name="Rectangle 75" transform="translate(14.67 0)" fill="#fff" stroke="#fff" stroke-linejoin="round" stroke-width="1">
            <rect width="4.004" height="4.004" stroke="none"/>
            <rect x="0.5" y="0.5" width="3.004" height="3.004" fill="none"/>
          </g>
          <g id="Rectangle_76" data-name="Rectangle 76" transform="translate(28.016 0)" fill="#fff" stroke="#fff" stroke-linejoin="round" stroke-width="1">
            <rect width="4.004" height="4.004" stroke="none"/>
            <rect x="0.5" y="0.5" width="3.004" height="3.004" fill="none"/>
          </g>
          <g id="Rectangle_77" data-name="Rectangle 77" transform="translate(37.357 0)" fill="#fff" stroke="#fff" stroke-linecap="round" stroke-linejoin="round" stroke-width="1">
            <rect width="5.338" height="4.004" stroke="none"/>
            <rect x="0.5" y="0.5" width="4.338" height="3.004" fill="none"/>
          </g>
        </g>
        <g id="Group_39" data-name="Group 39" transform="translate(6.673 0)">
          <g id="Rectangle_73" data-name="Rectangle 73" transform="translate(0)" fill="#683c45" stroke="#fff" stroke-width="3">
            <rect width="61.388" height="106.761" rx="5" stroke="none"/>
            <rect x="1.5" y="1.5" width="58.388" height="103.761" rx="3.5" fill="none"/>
          </g>
          <g id="Rectangle_74" data-name="Rectangle 74" transform="translate(13.345)" fill="none" stroke="#fff" stroke-width="3">
            <path d="M0,0H34.7a0,0,0,0,1,0,0V12.349a5,5,0,0,1-5,5H5a5,5,0,0,1-5-5V0A0,0,0,0,1,0,0Z" stroke="none"/>
            <path d="M1.5,1.5H33.2a0,0,0,0,1,0,0V12.349a3.5,3.5,0,0,1-3.5,3.5H5a3.5,3.5,0,0,1-3.5-3.5V1.5A0,0,0,0,1,1.5,1.5Z" fill="none"/>
          </g>
          <path id="Path_53" data-name="Path 53" d="M107.845,74.89l10.814,9.425,17.973-19.034" transform="translate(-90.711 -37.186)" fill="none" stroke="#fff" stroke-linecap="round" stroke-linejoin="round" stroke-width="5"/>
        </g>
        <g id="Rectangle_78" data-name="Rectangle 78" transform="translate(0 48.043)" fill="#fff" stroke="#34342c" stroke-width="2">
          <rect width="21.352" height="12.011" rx="5" stroke="none"/>
          <rect x="1" y="1" width="19.352" height="10.011" rx="4" fill="none"/>
        </g>
        <g id="Rectangle_79" data-name="Rectangle 79" transform="translate(0 57.384)" fill="#fff" stroke="#34342c" stroke-width="2">
          <rect width="21.352" height="13.345" rx="5" stroke="none"/>
          <rect x="1" y="1" width="19.352" height="11.345" rx="4" fill="none"/>
        </g>
        <g id="Rectangle_80" data-name="Rectangle 80" transform="translate(0 69.395)" fill="#fff" stroke="#34342c" stroke-width="2">
          <rect width="21.352" height="13.345" rx="5" stroke="none"/>
          <rect x="1" y="1" width="19.352" height="11.345" rx="4" fill="none"/>
        </g>
        <g id="Rectangle_81" data-name="Rectangle 81" transform="translate(0 81.405)" fill="#fff" stroke="#34342c" stroke-width="2">
          <rect width="21.352" height="12.011" rx="5" stroke="none"/>
          <rect x="1" y="1" width="19.352" height="10.011" rx="4" fill="none"/>
        </g>
        <path id="Path_55" data-name="Path 55" d="M136.075,94.507l5.536-9.15s3.943-2.132,5.071-1.333,1.446,4.627,1.446,4.627v74" transform="translate(-69.616 -26.381)" fill="none" stroke="#fff" stroke-linecap="round" stroke-linejoin="round" stroke-width="3"/>
      </g>
    </g>
    <g id="number-icon-2" data-name="number-icon" transform="translate(-97.6 -19.349)">
      <g id="Rectangle_62-2" data-name="Rectangle 62" transform="translate(0 0.495)" fill="#683c45" stroke="#683c45" stroke-width="1">
        <rect width="45" height="45" rx="14" stroke="none"/>
        <rect x="0.5" y="0.5" width="44" height="44" rx="13.5" fill="none"/>
      </g>
      <text id="_2" data-name="2" transform="translate(14.346 29.558)" fill="#fff" font-size="24" font-family="SpaceGrotesk-Bold, Space Grotesk" font-weight="700"><tspan x="0" y="0">2</tspan></text>
    </g>
  </g>
  <g id="_1_login" data-name="1 login" transform="translate(555.574 377.017)">
    <g id="icon-data" transform="translate(22 -358.163)">
      <g id="icon-data-2" data-name="icon-data" transform="translate(7.999 -7)">
        <g id="foot" transform="translate(19.427 35.672)">
          <g id="Rectangle_53" data-name="Rectangle 53" transform="translate(0 0.474)" fill="none" stroke="#34342c" stroke-width="4">
            <rect width="133" height="93" rx="8" stroke="none"/>
            <rect x="2" y="2" width="129" height="89" rx="6" fill="none"/>
          </g>
          <g id="Ellipse_32" data-name="Ellipse 32" transform="translate(63 78.474)" fill="#fff" stroke="#34342c" stroke-width="1">
            <ellipse cx="3.5" cy="2.5" rx="3.5" ry="2.5" stroke="none"/>
            <ellipse cx="3.5" cy="2.5" rx="3" ry="2" fill="none"/>
          </g>
          <g id="Path_43" data-name="Path 43" transform="translate(29.206 104.381)" fill="none">
            <path d="M8.18,0c5.9-.2,32.1,0,32.1,0V13.093H0S2.279.2,8.18,0Z" stroke="none"/>
            <path d="M 19.12607765197754 2.913192749023438 C 13.63638877868652 2.913192749023438 9.987308502197266 2.942042350769043 8.280197143554688 2.998942375183105 C 7.237579345703125 3.033702850341797 5.828578948974609 4.865571975708008 4.690597534179688 7.665852546691895 C 4.355022430419922 8.491616249084473 4.070785522460938 9.323711395263672 3.835647583007812 10.09295272827148 L 37.28409957885742 10.09295272827148 L 37.28409957885742 2.98041820526123 C 33.20027923583984 2.954624176025391 25.62770843505859 2.913192749023438 19.12607765197754 2.913192749023438 M 19.12607765197754 -0.08681011199951172 C 28.63848876953125 -0.08681011199951172 40.28409957885742 0.0006122589111328125 40.28409957885742 0.0006122589111328125 L 40.28409957885742 13.09295272827148 L -3.814697265625e-06 13.09295272827148 C -3.814697265625e-06 13.09295272827148 2.279376983642578 0.1973123550415039 8.180248260498047 0.0006122589111328125 C 10.14708518981934 -0.06494998931884766 14.37030601501465 -0.08681011199951172 19.12607765197754 -0.08681011199951172 Z" stroke="none" fill="#34342c"/>
          </g>
          <g id="Path_44" data-name="Path 44" transform="translate(65.461 104.381)" fill="none">
            <path d="M32.1,0C26.2-.2,0,0,0,0V13.093H40.284S38,.2,32.1,0Z" stroke="none"/>
            <path d="M 21.15638732910156 2.913192749023438 C 14.65554618835449 2.913192749023438 7.083663940429688 2.954622268676758 2.999996185302734 2.980416297912598 L 2.999996185302734 10.09295272827148 L 36.44958877563477 10.09295272827148 C 36.22187805175781 9.349275588989258 35.94748687744141 8.545001983642578 35.62375640869141 7.740662574768066 C 34.47855758666992 4.895312309265137 33.05767822265625 3.034072875976562 32.00390625 2.998942375183105 C 30.29678726196289 2.942042350769043 26.64770889282227 2.913192749023438 21.15694808959961 2.913192749023438 L 21.15638732910156 2.913192749023438 M 21.15801811218262 -0.08681011199951172 C 25.91378784179688 -0.0868072509765625 30.13701248168945 -0.06494998931884766 32.10384750366211 0.0006122589111328125 C 38.00471878051758 0.1973123550415039 40.28409957885742 13.09295272827148 40.28409957885742 13.09295272827148 L -3.814697265625e-06 13.09295272827148 L -3.814697265625e-06 0.0006122589111328125 C -3.814697265625e-06 0.0006122589111328125 11.64560699462891 -0.08681488037109375 21.15801811218262 -0.08681011199951172 Z" stroke="none" fill="#34342c"/>
          </g>
          <g id="Rectangle_54" data-name="Rectangle 54" transform="translate(64 107.474)" fill="#fff" stroke="#fff" stroke-width="1">
            <rect width="7" height="7" stroke="none"/>
            <rect x="0.5" y="0.5" width="6" height="6" fill="none"/>
          </g>
          <path id="Path_45" data-name="Path 45" d="M67.516,141.107s3.387-3.084,3.577-12.98" transform="translate(-19.085 -34.841)" fill="none" stroke="#34342c" stroke-width="3"/>
          <path id="Path_46" data-name="Path 46" d="M69.847,141.107s-2.208-3.084-2.332-12.98" transform="translate(13.698 -34.841)" fill="none" stroke="#34342c" stroke-width="3"/>
        </g>
        <path id="Path_48" data-name="Path 48" d="M22.3,106.613H149.6" transform="translate(0.02 0.678)" fill="none" stroke="#34342c" stroke-width="3"/>
        <g id="tabell" transform="translate(31.294 46.263)">
          <g id="Rectangle_59" data-name="Rectangle 59" transform="translate(46.132 0.883)" fill="none" stroke="#34342c" stroke-width="3">
            <rect width="16" height="52" rx="3" stroke="none"/>
            <rect x="1.5" y="1.5" width="13" height="49" rx="1.5" fill="none"/>
          </g>
          <g id="Rectangle_60" data-name="Rectangle 60" transform="translate(19.132 12.883)" fill="none" stroke="#34342c" stroke-width="3">
            <rect width="15" height="40" rx="3" stroke="none"/>
            <rect x="1.5" y="1.5" width="12" height="37" rx="1.5" fill="none"/>
          </g>
          <path id="Path_47" data-name="Path 47" d="M1462.16,2578.871h-20.376V2632.5" transform="translate(-1441.784 -2578.871)" fill="none" stroke="#34342c" stroke-linecap="round" stroke-width="3"/>
        </g>
        <g id="arrowup" transform="translate(93.947 11.147)">
          <g id="Group_37" data-name="Group 37" transform="translate(0 0)">
            <path id="Path_58" data-name="Path 58" d="M3.021,0h9.064a3.021,3.021,0,0,1,3.021,3.021v62.44a3.021,3.021,0,0,1-3.021,3.021H3.021A3.021,3.021,0,0,1,0,65.462V3.021A3.021,3.021,0,0,1,3.021,0Z" transform="translate(11.082 19.134)" fill="#683c45"/>
            <path id="Polygon_2" data-name="Polygon 2" d="M15.964,1.844a2,2,0,0,1,3.073,0L32.266,17.72A2,2,0,0,1,30.73,21H4.27a2,2,0,0,1-1.536-3.28Z" transform="translate(0.479 -0.001)" fill="#683c45"/>
          </g>
          <path id="Path_56" data-name="Path 56" d="M0,0H9.064V7.05H0Z" transform="translate(14.104 21.147)" fill="#683c45"/>
        </g>
      </g>
      <g id="number-icon-3" data-name="number-icon" transform="translate(-17.574 -19.349)">
        <g id="Rectangle_62-3" data-name="Rectangle 62" transform="translate(0 0.494)" fill="#683c45" stroke="#683c45" stroke-width="1">
          <rect width="46" height="46" rx="14" stroke="none"/>
          <rect x="0.5" y="0.5" width="45" height="45" rx="13.5" fill="none"/>
        </g>
        <text id="_3" data-name="3" transform="translate(14.665 31.67)" fill="#fff" font-size="26" font-family="SpaceGrotesk-Bold, Space Grotesk" font-weight="700"><tspan x="0" y="0">3</tspan></text>
      </g>
    </g>
  </g>
</svg>
