<svg id="quote-marks" xmlns="http://www.w3.org/2000/svg" width="109.725" height="77.198" viewBox="0 0 109.725 77.198">
  <path id="Union_1" data-name="Union 1" d="M668.546-2664.181l-.037.053s-3.4-16.94,0-25.875,8.789-24.474,17.2-26.852,8.434-1.772,14.612-2.137,13.313,12.9,0,14.576-16,17.4-16,17.4l-.218.315a23.847,23.847,0,0,1,7.118-1.1,22.5,22.5,0,0,1,22.5,22.5,22.5,22.5,0,0,1-22.5,22.5C679.122-2642.8,670.295-2652.156,668.546-2664.181Z" transform="translate(-666.493 2719.5)" fill="#f7f1de" stroke="#f7f1de" stroke-width="1"/>
  <path id="Union_4" data-name="Union 4" d="M668.546-2664.181l-.037.053s-3.4-16.94,0-25.875,8.789-24.474,17.2-26.852,8.434-1.772,14.612-2.137,13.313,12.9,0,14.576-16,17.4-16,17.4l-.218.315a23.847,23.847,0,0,1,7.118-1.1,22.5,22.5,0,0,1,22.5,22.5,22.5,22.5,0,0,1-22.5,22.5C679.122-2642.8,670.295-2652.156,668.546-2664.181Z" transform="translate(-604.493 2719.5)" fill="#f7f1de" stroke="#f7f1de" stroke-width="1"/>
</svg>

